<?xml version="1.0" standalone="no"?><!DOCTYPE svg PUBLIC "-//W3C//DTD SVG 1.1//EN" "http://www.w3.org/Graphics/SVG/1.1/DTD/svg11.dtd"><svg t="1700632450809" class="icon" viewBox="0 0 1024 1024" version="1.1" xmlns="http://www.w3.org/2000/svg" p-id="6817" xmlns:xlink="http://www.w3.org/1999/xlink" width="200" height="200"><path d="M0 0h1024v1024H0z" fill-opacity="0.01" p-id="6818"></path><path d="M512 938.666667H128a42.666667 42.666667 0 0 1-42.666667-42.666667V128a42.666667 42.666667 0 0 1 42.666667-42.666667h384a42.666667 42.666667 0 0 1 0 85.333334H170.666667v682.666666h341.333333a42.666667 42.666667 0 0 1 0 85.333334z" p-id="6819"></path><path d="M704 746.666667a42.666667 42.666667 0 0 1-30.165333-72.832L835.669333 512l-161.834666-161.834667a42.666667 42.666667 0 0 1 60.330666-60.330666l192 192a42.666667 42.666667 0 0 1 0 60.330666l-192 192a42.666667 42.666667 0 0 1-30.165333 12.501334z" p-id="6820"></path><path d="M896 554.496H341.333333a42.666667 42.666667 0 0 1 0-85.333333h554.666667a42.666667 42.666667 0 0 1 0 85.333333z" p-id="6821"></path></svg>